# xmcd
#
# Track frame offsets:
#	150
#	21334
#	59254
#	79916
#	109306
#	132019
#	159549
#	183966
#	226658
#	262285
#
# Disc length: 3981 seconds
#
# Revision: 2
# Processed by: cddbd v1.5.2PL0 Copyright (c) Steve Scherf et al.
# Submitted via: audiograbber 1.83.01
#
DISCID=820f8b0a
DTITLE=Bill Bruford's Earthworks - All Heaven Broke Loose-2019 Summerfold Remas
DTITLE=ter
DYEAR=1991
DGENRE=Jazz
TTITLE0=Hotel Splendour
TTITLE1=Forget-Me-Not
TTITLE2=Candles Still Flicker In Romania's Dark
TTITLE3=Pigalle
TTITLE4=Temple Of The Winds
TTITLE5=Nerve
TTITLE6=Splashing Out
TTITLE7=All Heaven Broke Loose (a. Psalm b. Old Song)
TTITLE8=Libreville [Bonus Track]
TTITLE9=Pilgrim's Way [Bonus Track]
EXTD=
EXTT0=
EXTT1=
EXTT2=
EXTT3=
EXTT4=
EXTT5=
EXTT6=
EXTT7=
EXTT8=
EXTT9=
PLAYORDER=
